<svg width="35" height="35" viewBox="0 0 35 35" fill="none" xmlns="http://www.w3.org/2000/svg">
<path d="M17.5 1.09375C10.5547 1.09375 4.64844 5.41406 2.24219 11.4844H32.7578C30.3516 5.41406 24.4453 1.09375 17.5 1.09375Z" fill="#42ADE2"/>
<path d="M17.5 33.9062C24.4453 33.9062 30.3516 29.5859 32.7578 23.5156H2.24219C4.64844 29.5859 10.5547 33.9062 17.5 33.9062Z" fill="#83BF4F"/>
<path d="M33.9062 17.5C33.9062 15.8047 33.6328 14.1094 33.1406 12.5781H1.85938C1.36719 14.1094 1.09375 15.8047 1.09375 17.5C1.09375 19.1953 1.36719 20.8906 1.85938 22.4219H33.1406C33.6328 20.8906 33.9062 19.1953 33.9062 17.5Z" fill="white"/>
<path d="M32.7578 11.4844C32.8125 11.6484 32.9219 11.8672 32.9766 12.0312C33.0312 12.1953 33.0859 12.4141 33.1406 12.5781" fill="#C94747"/>
<path d="M32.9766 12.0312C32.9219 11.8672 32.8125 11.6484 32.7578 11.4844H2.24219C2.1875 11.6484 2.07812 11.8672 2.02344 12.0312C1.96875 12.1953 1.91406 12.4141 1.85938 12.5781H33.1406C33.0859 12.4141 33.0312 12.1953 32.9766 12.0312ZM2.02344 22.9688C2.07812 23.1328 2.1875 23.3516 2.24219 23.5156H32.7578C32.8125 23.3516 32.9219 23.1328 32.9766 22.9688C33.0312 22.8047 33.0859 22.5859 33.1406 22.4219H1.85938C1.91406 22.5859 1.96875 22.8047 2.02344 22.9688Z" fill="#C94747"/>
<path d="M11.1562 9.46094C9.84375 9.46094 8.80469 8.42188 8.80469 7.10938C8.80469 5.79688 9.84375 4.75781 11.1562 4.75781C11.4844 4.75781 11.7578 4.8125 12.0312 4.92188C11.5938 4.59375 10.9922 4.375 10.3906 4.375C8.85938 4.375 7.65625 5.57812 7.65625 7.10938C7.65625 8.64062 8.85938 9.84375 10.3906 9.84375C10.9922 9.84375 11.5938 9.625 12.0312 9.29688C11.7578 9.40625 11.4844 9.46094 11.1562 9.46094ZM13.5078 8.3125L13.7266 8.91406H14.3281L13.8359 9.24219L14 9.84375L13.5078 9.46094L13.0156 9.84375L13.2344 9.24219L12.7422 8.91406H13.3438L13.5078 8.3125ZM15.8594 8.3125L16.0234 8.91406H16.6797L16.1875 9.24219L16.3516 9.84375L15.8594 9.46094L15.3672 9.84375L15.5312 9.24219L15.0391 8.91406H15.6406L15.8594 8.3125ZM18.2109 8.3125L18.375 8.91406H18.9766L18.4844 9.24219L18.7031 9.84375L18.2109 9.46094L17.6641 9.84375L17.8828 9.24219L17.3906 8.91406H17.9922L18.2109 8.3125ZM20.5078 8.3125L20.7266 8.91406H21.3281L20.8359 9.24219L21 9.84375L20.5078 9.46094L20.0156 9.84375L20.1797 9.24219L19.6875 8.91406H20.3438L20.5078 8.3125ZM22.8594 8.3125L23.0234 8.91406H23.6797L23.1328 9.24219L23.3516 9.84375L22.8594 9.46094L22.3672 9.84375L22.5312 9.24219L22.0391 8.91406H22.6406L22.8594 8.3125ZM15.8594 6.34375L16.0234 6.94531H16.6797L16.1875 7.27344L16.3516 7.875L15.8594 7.49219L15.3672 7.875L15.5312 7.27344L15.0391 6.94531H15.6406L15.8594 6.34375ZM18.2109 6.34375L18.375 6.94531H18.9766L18.4844 7.27344L18.7031 7.875L18.2109 7.49219L17.6641 7.875L17.8828 7.27344L17.3906 6.94531H17.9922L18.2109 6.34375ZM20.5078 6.34375L20.7266 6.94531H21.3281L20.8359 7.27344L21 7.875L20.5078 7.49219L20.0156 7.875L20.1797 7.27344L19.6875 6.94531H20.3438L20.5078 6.34375ZM22.8594 6.34375L23.0234 6.94531H23.6797L23.1328 7.27344L23.3516 7.875L22.8594 7.49219L22.3672 7.875L22.5312 7.27344L22.0391 6.94531H22.6406L22.8594 6.34375ZM18.2109 4.375L18.375 4.97656H18.9766L18.4844 5.30469L18.7031 5.90625L18.2109 5.52344L17.6641 5.90625L17.8828 5.30469L17.3906 4.97656H17.9922L18.2109 4.375ZM20.5078 4.375L20.7266 4.97656H21.3281L20.8359 5.30469L21 5.90625L20.5078 5.52344L20.0156 5.90625L20.1797 5.30469L19.6875 4.97656H20.3438L20.5078 4.375ZM22.8594 4.375L23.0234 4.97656H23.6797L23.1328 5.30469L23.3516 5.90625L22.8594 5.52344L22.3672 5.90625L22.5312 5.30469L22.0391 4.97656H22.6406L22.8594 4.375Z" fill="white"/>
</svg>
